<?xml version="1.0" standalone="no"?>
<!DOCTYPE svg PUBLIC "-//W3C//DTD SVG 20010904//EN"
 "http://www.w3.org/TR/2001/REC-SVG-20010904/DTD/svg10.dtd">
<svg version="1.0" xmlns="http://www.w3.org/2000/svg"
 width="460.000000pt" height="337.000000pt" viewBox="0 0 460.000000 337.000000"
 preserveAspectRatio="xMidYMid meet">

<g transform="translate(0.000000,337.000000) scale(0.100000,-0.100000)"
fill="#000000" stroke="none">
<path d="M0 1685 l0 -1685 2300 0 2300 0 0 1685 0 1685 -2300 0 -2300 0 0
-1685z m1188 958 c6 -27 48 -254 93 -505 46 -252 86 -458 89 -458 3 0 72 227
154 505 82 278 152 505 155 505 8 0 204 -59 206 -63 1 -1 -96 -335 -216 -742
-121 -407 -219 -750 -219 -762 0 -18 -6 -23 -27 -23 -16 0 -65 -3 -110 -7
l-83 -6 0 27 c0 23 4 26 38 27 l37 1 -35 11 c-19 6 -36 11 -37 11 -4 3 -273
1479 -269 1483 3 4 177 39 203 42 6 1 16 -20 21 -46z m1283 -16 c210 -44 350
-129 406 -246 22 -45 27 -70 27 -131 0 -83 -14 -131 -65 -217 -40 -66 -181
-211 -262 -268 -31 -22 -56 -43 -54 -48 1 -4 98 -83 214 -176 l213 -168 -66
-84 c-37 -46 -69 -85 -73 -87 -3 -1 -105 76 -226 172 l-220 175 -14 -187 c-7
-103 -14 -188 -16 -190 -2 -2 -52 2 -112 10 -98 12 -108 15 -106 33 19 209 25
447 19 769 -4 204 -9 390 -12 414 l-6 42 -79 0 c-55 0 -81 4 -84 13 -2 6 -6
57 -8 111 l-6 99 207 -6 c165 -5 231 -11 323 -30z m749 17 c208 -29 527 -29
625 0 17 5 28 -8 74 -90 42 -77 51 -98 40 -105 -56 -37 -256 -60 -441 -51
l-108 5 0 -212 0 -211 110 0 110 0 0 -110 0 -109 -107 -3 -108 -3 -3 -282 -2
-283 -110 0 -110 0 -2 618 -3 617 -73 8 c-61 8 -72 12 -68 25 3 10 10 53 16
97 7 44 13 86 16 93 4 15 14 15 144 -4z m750 -264 c-54 -34 -291 -62 -420 -49
-101 9 -90 7 -90 17 0 5 73 9 163 9 139 0 175 4 252 25 50 13 94 20 100 16 6
-6 4 -12 -5 -18z m-254 -472 c-12 -145 -16 -159 -40 -152 -11 4 -22 8 -24 9
-2 1 3 53 9 114 12 108 13 111 37 111 l25 0 -7 -82z m-716 -584 c12 -13 3 -25
-56 -85 -37 -38 -74 -69 -80 -69 -6 0 -18 7 -25 16 -11 14 -3 25 61 85 41 37
78 68 81 69 4 0 12 -7 19 -16z"/>
<path d="M2354 2283 c4 -76 9 -195 12 -265 l6 -128 79 62 c199 154 276 290
202 360 -40 37 -103 66 -190 89 -125 31 -116 41 -109 -118z m139 58 c67 -21
125 -59 133 -84 10 -32 -4 -31 -37 1 -32 32 -76 52 -157 72 -23 6 -40 15 -37
20 9 15 35 12 98 -9z"/>
</g>
</svg>
