<svg xmlns="http://www.w3.org/2000/svg" viewBox="0 0 287.94 90.22"><defs><style>.cls-1{isolation:isolate;}.cls-2,.cls-3,.cls-5{fill:#38a949;}.cls-3,.cls-5{fill-rule:evenodd;}.cls-4{fill:#fff;}.cls-5{opacity:0.4;mix-blend-mode:multiply;}.cls-6{fill:#312b21;}</style></defs><g class="cls-1"><g id="Capa_1" data-name="Capa 1"><path class="cls-2" d="M112.35,269a4,4,0,0,0-4,3.75v10.53H93.28V273a4,4,0,0,0-4-4H85.09v37.21h4.17a4,4,0,0,0,4-4v-12h15.06v12.3a4,4,0,0,0,4,3.75h4.17V269Z" transform="translate(16.43 -255.71)"/><path class="cls-2" d="M140.91,268.12c-11.52,0-18.29,8.6-18.29,19.65,0,10.73,6.77,19.33,18.29,19.33s18.3-8.6,18.3-19.33C159.21,276.72,152.43,268.12,140.91,268.12Zm0,32.11c-7.35,0-10.11-6.26-10.11-12.46,0-6.51,2.76-12.77,10.11-12.77S151,281.26,151,287.77C151,294,148.26,300.23,140.91,300.23Z" transform="translate(16.43 -255.71)"/><path class="cls-2" d="M196.2,303.1a26.39,26.39,0,0,1-.3-2.66c-.07-1.13-.11-2.21-.16-3-.26-3.75-1.41-7.67-5.42-8.7v-.11c4.12-1.66,5.89-5,5.89-9.33,0-5.63-4.22-10.26-10.89-10.26H165.25v37.21h4.18a4,4,0,0,0,4-3.68V291.67h8.18c4.12,0,5.63,1.72,6.21,5.63.21,1.55.29,3.27.46,4.9h0c0,.29.05.58.09.86a4,4,0,0,0,3.92,3.16h5A8.14,8.14,0,0,1,196.2,303.1Zm-13.8-17.26h-9V275.36h9c3.64,0,5.62,1.57,5.62,5.16C188,284.28,186,285.84,182.4,285.84Z" transform="translate(16.43 -255.71)"/><path class="cls-2" d="M230.78,269a4,4,0,0,0-4,3.53v19.6c0,5.53-1.88,8.09-7.72,8.09-6.61,0-7.65-4-7.65-8.09V272.57a3.83,3.83,0,0,0-.38-1.3,4,4,0,0,0-3.61-2.26h-4.2v23.13c0,10.12,5.84,15,15.84,15s15.9-4.9,15.9-15V269Z" transform="translate(16.43 -255.71)"/><path class="cls-2" d="M260.47,284.33c-9.33-2.4-11.1-2.76-11.1-5.63,0-3.13,3-4.22,5.62-4.22,3,0,5.54.66,6.7,3,.09.18.17.37.25.57a4,4,0,0,0,3,2.09h5.3a12.33,12.33,0,0,0-.83-4.6A10.28,10.28,0,0,0,268,273c-2.72-3.4-7.53-4.85-12.61-4.85-6.72,0-13.92,3.65-13.92,11.26,0,7,5.58,9.12,11.1,10.58s11.06,2.13,11.06,6.15c0,3.8-4.38,4.64-7.25,4.64-3.42,0-6.52-1.18-7.71-4.06h0a3.34,3.34,0,0,1-.17-.44,1.11,1.11,0,0,0-.07-.16,4.1,4.1,0,0,0-1.12-1.39,3.88,3.88,0,0,0-2-.84h-5.06a13.76,13.76,0,0,0,.59,4.24,11.58,11.58,0,0,0,1.22,2.64c2.74,4.36,8.26,6.36,14,6.36,10.12,0,15.48-5.1,15.48-11.93C271.51,286.73,263.18,285,260.47,284.33Z" transform="translate(16.43 -255.71)"/><path class="cls-3" d="M73.79,336.69a9.29,9.29,0,0,1-9.33,9.24H-7.09a9.3,9.3,0,0,1-9.34-9.24V264.94a9.29,9.29,0,0,1,9.34-9.23H64.46a9.28,9.28,0,0,1,9.33,9.23Z" transform="translate(16.43 -255.71)"/><path class="cls-4" d="M28.66,296.39a4.46,4.46,0,0,0-4.49,4.41h0a4.49,4.49,0,0,0,9,0v-.22A4.47,4.47,0,0,0,28.66,296.39Z" transform="translate(16.43 -255.71)"/><path class="cls-4" d="M47.33,327.57a2.85,2.85,0,0,0-.48-.87.94.94,0,0,0-.09-.12c-.07-.08-.15-.16-.22-.25h0a2.26,2.26,0,0,0-.29-.25,3.57,3.57,0,0,0-1.59-.73h0l-.37,0a32.13,32.13,0,0,1-12.29-3.81A31,31,0,0,1,29,319.61a18.94,18.94,0,0,0,18.12-14c.06-.22.12-.44.16-.66a2.74,2.74,0,0,0,0-.5v-.18a3.59,3.59,0,0,0-.87-2.14,3.65,3.65,0,0,0-1.95-1.29,3.82,3.82,0,0,0-1.9,0,3.12,3.12,0,0,0-.43.15,3,3,0,0,0-.62.31l-.17.12-.19.14-.16.15-.09.08v0a5.17,5.17,0,0,0-1,1.81h0l0,.16a2.32,2.32,0,0,0-.05.53h0v0a11.7,11.7,0,0,1-22.32-.15,6.55,6.55,0,0,1-.22-.79,3.19,3.19,0,0,0-.52-.94.71.71,0,0,0-.1-.14c-.07-.09-.16-.18-.24-.27h0a4,4,0,0,0-.32-.28,3.8,3.8,0,0,0-2.39-.84,3.87,3.87,0,0,0-2.72,1.12l-.11.13-.13.14a3.79,3.79,0,0,0-.87,2.44v24A3.49,3.49,0,0,0,10.7,331l0,.06.12.13.18.2,0,0a3.17,3.17,0,0,0,.35.29,3.72,3.72,0,0,0,1.36.61h1.51a3.55,3.55,0,0,0,1.38-.63l.17-.14.21-.18h0a2.14,2.14,0,0,1,.28-.32h0a3.57,3.57,0,0,0,.76-2V319c5.86,7.31,15.39,12.28,26.32,13.29l.6.06h0a3.49,3.49,0,0,0,2.11-.7l.17-.14.2-.18h0a2.92,2.92,0,0,1,.28-.32h0a3.46,3.46,0,0,0,.76-2.18,4.21,4.21,0,0,0,0-.51A3,3,0,0,0,47.33,327.57Z" transform="translate(16.43 -255.71)"/><path class="cls-4" d="M53.3,278.43c-.21-.23-.42-.45-.64-.66A33.88,33.88,0,0,0,4.4,278l-.12.13-.12.14a3.71,3.71,0,0,0-.08,4.6l0,.05a3.38,3.38,0,0,0,.31.35,3.44,3.44,0,0,0,.41.35,3.71,3.71,0,0,0,2.18.71,3.64,3.64,0,0,0,2.39-.88c.16-.18.34-.36.51-.53a26.34,26.34,0,0,1,37.65.15c.07.08.15.15.22.24a3.82,3.82,0,0,0,2.56,1,3.61,3.61,0,0,0,2.21-.74l.69-.67h0a3.67,3.67,0,0,0,0-4.51Z" transform="translate(16.43 -255.71)"/><path class="cls-4" d="M37.25,293a3.31,3.31,0,0,1,.3.34,3.63,3.63,0,0,0,6.16-2.6,3.58,3.58,0,0,0-.83-2.3c-.07-.09-.15-.17-.23-.26h0a19.15,19.15,0,0,0-28,0,1.88,1.88,0,0,0-.24.25,3.63,3.63,0,0,0-.08,4.52l.75.72a3.55,3.55,0,0,0,2.13.7,3.61,3.61,0,0,0,2.55-1.05h0L20,293a11.75,11.75,0,0,1,17.24,0Z" transform="translate(16.43 -255.71)"/><path class="cls-5" d="M46.88,302.69a3.5,3.5,0,0,1,.46,1.54v.18a2.74,2.74,0,0,1,0,.5c0,.22-.1.44-.16.66a18.94,18.94,0,0,1-18.12,14,31,31,0,0,0,2.92,1.88,32.13,32.13,0,0,0,12.29,3.81l.37,0h0a3.57,3.57,0,0,1,1.59.73,2.26,2.26,0,0,1,.29.25h0c.07.09.15.17.22.25a.94.94,0,0,1,.09.12,2.85,2.85,0,0,1,.48.87,3,3,0,0,1,.2.74,4.21,4.21,0,0,1,0,.51,3.46,3.46,0,0,1-.76,2.18h0a2.92,2.92,0,0,0-.28.32h0l-.2.18-.17.14a3.49,3.49,0,0,1-2.11.7h0l-.6-.06c-10.93-1-20.46-6-26.32-13.29v10a3.6,3.6,0,0,1-.75,2V331H16.3a3.22,3.22,0,0,0-.24.28h0l-.21.18-.17.14a3.55,3.55,0,0,1-1.38.63h-.65l14,13.65H64.27a9.53,9.53,0,0,0,9.52-9.54V330.5Z" transform="translate(16.43 -255.71)"/><path class="cls-6" d="M84.86,326.65c-.06,2.77,1.93,3.63,4.4,3.63,1.42,0,3.57-.78,3.57-2.74,0-1.54-1.51-2.14-2.77-2.44l-3-.74c-1.59-.39-3-1.13-3-3.25,0-1.32.85-3.79,4.65-3.79,2.68,0,5,1.41,5,4.19H92.36c-.1-2-1.76-3.1-3.68-3.1-1.76,0-3.39.68-3.39,2.68,0,1.27.93,1.82,2,2.06l3.29.82c1.91.51,3.5,1.36,3.5,3.55,0,.92-.38,3.85-5.16,3.85-3.19,0-5.53-1.44-5.38-4.72Z" transform="translate(16.43 -255.71)"/><polygon class="cls-6" points="116.78 61.89 118.67 61.89 123.33 73.71 127.98 61.89 129.87 61.89 129.87 75.38 128.59 75.38 128.59 63.72 128.55 63.72 123.94 75.38 122.73 75.38 118.1 63.72 118.07 63.72 118.07 75.38 116.78 75.38 116.78 61.89"/><path class="cls-6" d="M124.31,317.6h1.44L131,331.09h-1.38L128,326.9h-6.14l-1.63,4.19h-1.38Zm-2,8.19h5.3l-2.6-6.9Z" transform="translate(16.43 -255.71)"/><path class="cls-6" d="M136.5,317.6h6.18c2.21,0,4.1,1.07,4.1,3.51a3.24,3.24,0,0,1-2.63,3.44v0c1.76.24,2.27,1.41,2.36,3,.06.92.06,2.8.62,3.45h-1.41a5.64,5.64,0,0,1-.36-2.09c-.1-1.89-.28-4-2.71-3.89h-4.87v6H136.5Zm1.28,6.4h4.8a2.68,2.68,0,0,0,2.91-2.62c0-1.67-1-2.68-2.91-2.68h-4.8Z" transform="translate(16.43 -255.71)"/><polygon class="cls-6" points="168.42 61.89 179.11 61.89 179.11 62.99 174.41 62.99 174.41 75.38 173.13 75.38 173.13 62.99 168.42 62.99 168.42 61.89"/><polygon class="cls-6" points="194.1 61.89 203.41 61.89 203.41 62.99 195.38 62.99 195.38 67.86 202.9 67.86 202.9 68.96 195.38 68.96 195.38 74.29 203.5 74.29 203.5 75.38 194.1 75.38 194.1 61.89"/><polygon class="cls-6" points="209.51 61.89 210.95 61.89 218.81 73.3 218.84 73.3 218.84 61.89 220.13 61.89 220.13 75.38 218.69 75.38 210.84 63.97 210.8 63.97 210.8 75.38 209.51 75.38 209.51 61.89"/><polygon class="cls-6" points="227.07 61.89 236.38 61.89 236.38 62.99 228.35 62.99 228.35 67.86 235.87 67.86 235.87 68.96 228.35 68.96 228.35 74.29 236.47 74.29 236.47 75.38 227.07 75.38 227.07 61.89"/><path class="cls-6" d="M226.08,317.6h6.17c2.21,0,4.1,1.07,4.1,3.51a3.24,3.24,0,0,1-2.62,3.44v0c1.75.24,2.26,1.41,2.36,3,0,.92,0,2.8.62,3.45h-1.42a6.08,6.08,0,0,1-.36-2.09c-.09-1.89-.28-4-2.7-3.89h-4.87v6h-1.28Zm1.28,6.4h4.8a2.68,2.68,0,0,0,2.91-2.62c0-1.67-1-2.68-2.91-2.68h-4.8Z" transform="translate(16.43 -255.71)"/><path class="cls-6" d="M254.43,331.09h-.92l-.17-2.46h0a4.87,4.87,0,0,1-4.66,2.74c-4.25,0-6.37-3.32-6.37-7s2.12-7,6.37-7c2.82,0,5.11,1.52,5.62,4.47H253a4.21,4.21,0,0,0-4.34-3.38c-3.58,0-5.08,3-5.08,5.93s1.5,5.93,5.08,5.93c3,0,4.72-2.07,4.66-4.94h-4.59v-1.1h5.72Z" transform="translate(16.43 -255.71)"/><polygon class="cls-6" points="281.33 69.83 276.02 61.89 277.55 61.89 282 68.73 286.41 61.89 287.94 61.89 282.61 69.83 282.61 75.38 281.33 75.38 281.33 69.83"/></g></g></svg>